<svg viewBox="0 0 24 24" xmlns="http://www.w3.org/2000/svg"><path d="m0 0h24v24h-24z" fill="#fff" opacity="0" transform="matrix(-1 0 0 -1 24 24)"/><path d="m20.41 5.89-4-1.8h-.05-.12-.12-.25-.1-.13-.05l-3.59 1.61-3.59-1.61h-.05l-.12-.09h-.12-.25-.1-.13l-4 1.8a1 1 0 0 0 -.64 1v12.2a1 1 0 0 0 .46.84 1 1 0 0 0 .54.16 1 1 0 0 0 .41-.09l3.59-1.61 3.59 1.61h.05a.85.85 0 0 0 .72 0h.05l3.59-1.61 3.59 1.61a1 1 0 0 0 .41.09 1 1 0 0 0 .54-.16 1 1 0 0 0 .46-.84v-12.2a1 1 0 0 0 -.59-.91zm-11.41.66 2 .89v10l-2-.89zm10 10.9-2-.89v-10l2 .89z" fill="#231f20"/></svg>