<svg fill="none" height="24" viewBox="0 0 24 24" width="24" xmlns="http://www.w3.org/2000/svg"><g fill="#292d32"><path d="m5.73937 16c.11-.49-.09-1.19-.44-1.54l-2.43-2.43c-.76-.76-1.06-1.57-.84-2.27.23-.7.94-1.18 2-1.36l3.12-.52c.45-.08 1-.48 1.21-.89l1.72003-3.45c.5-.99 1.18-1.54 1.92-1.54s1.42.55 1.92 1.54l1.72 3.45c.13.26.4.51.69.68l-10.77003 10.77c-.14.14-.38.01-.34-.19z"/><path d="m18.7008 14.4619c-.36.36-.56 1.05-.44 1.54l.69 3.01c.29 1.25.11 2.19-.51 2.64-.25.18-.55.27-.9.27-.51 0-1.11-.19-1.77-.58l-2.93-1.74c-.46-.27-1.22-.27-1.68 0l-2.93002 1.74c-1.11.65-2.06.76-2.67.31-.23-.17-.4-.4-.51-.7l12.16002-12.16005c.46-.46 1.11-.67 1.74-.56l1.01.17c1.06.18 1.77.66 2 1.36.22.70005-.08 1.51005-.84 2.27005z"/></g></svg>